# xmcd CD database file
#
# Track frame offsets:
#	150
#	15375
#	32670
#
# Disc length: 685 seconds
#
# Revision: 0
# Processed by: cddbd v1.5PL3 Copyright (c) Steve Scherf et al.
# Submitted via: CDex 1.50
#
DISCID=1502ab03
DTITLE=ロードオブメジャー  - 僕らだけの歌
DYEAR=2003
DGENRE=Japanese Pop
TTITLE0=僕らだけの歌
TTITLE1=春雨
TTITLE2=東の空に
EXTD=YEAR: 2003
EXTT0=
EXTT1=
EXTT2=
PLAYORDER=
